<mxfile host="65bd71144e">
    <diagram id="1CRUhb7KtWk_jxI4YGjq" name="Page-1">
        <mxGraphModel dx="901" dy="779" grid="1" gridSize="10" guides="1" tooltips="1" connect="1" arrows="1" fold="1" page="1" pageScale="1" pageWidth="850" pageHeight="1100" math="0" shadow="0">
            <root>
                <mxCell id="0"/>
                <mxCell id="1" parent="0"/>
                <mxCell id="71" value="Predictions" style="edgeStyle=none;html=1;noEdgeStyle=1;orthogonal=1;" parent="1" source="2" target="63" edge="1">
                    <mxGeometry relative="1" as="geometry">
                        <Array as="points">
                            <mxPoint x="60" y="72"/>
                            <mxPoint x="386.1111111111111" y="148"/>
                        </Array>
                    </mxGeometry>
                </mxCell>
                <mxCell id="2" value="Bert Base" style="rounded=0;whiteSpace=wrap;html=1;" parent="1" vertex="1">
                    <mxGeometry width="120" height="60" as="geometry"/>
                </mxCell>
                <mxCell id="3" value="Bert Large" style="rounded=0;whiteSpace=wrap;html=1;" parent="1" vertex="1">
                    <mxGeometry x="150" width="120" height="60" as="geometry"/>
                </mxCell>
                <mxCell id="4" value="Roberta Base" style="rounded=0;whiteSpace=wrap;html=1;" parent="1" vertex="1">
                    <mxGeometry x="300" width="120" height="60" as="geometry"/>
                </mxCell>
                <mxCell id="5" value="Roberta Large" style="rounded=0;whiteSpace=wrap;html=1;" parent="1" vertex="1">
                    <mxGeometry x="450" width="120" height="60" as="geometry"/>
                </mxCell>
                <mxCell id="6" value="Deberta Base" style="rounded=0;whiteSpace=wrap;html=1;" parent="1" vertex="1">
                    <mxGeometry x="600" width="120" height="60" as="geometry"/>
                </mxCell>
                <mxCell id="7" value="Deberta Large" style="rounded=0;whiteSpace=wrap;html=1;" parent="1" vertex="1">
                    <mxGeometry x="750" width="120" height="60" as="geometry"/>
                </mxCell>
                <mxCell id="64" style="edgeStyle=none;html=1;noEdgeStyle=1;orthogonal=1;" parent="1" source="63" target="65" edge="1">
                    <mxGeometry relative="1" as="geometry">
                        <mxPoint x="470" y="260" as="targetPoint"/>
                        <Array as="points">
                            <mxPoint x="435" y="232"/>
                            <mxPoint x="435" y="308"/>
                        </Array>
                    </mxGeometry>
                </mxCell>
                <mxCell id="63" value="SUM" style="rounded=0;whiteSpace=wrap;html=1;" parent="1" vertex="1">
                    <mxGeometry x="375" y="160" width="120" height="60" as="geometry"/>
                </mxCell>
                <mxCell id="66" value="y" style="edgeStyle=none;html=1;noEdgeStyle=1;orthogonal=1;" parent="1" source="65" target="68" edge="1">
                    <mxGeometry relative="1" as="geometry">
                        <mxPoint x="510" y="350" as="targetPoint"/>
                        <Array as="points">
                            <mxPoint x="417.5" y="412"/>
                            <mxPoint x="385" y="488"/>
                        </Array>
                    </mxGeometry>
                </mxCell>
                <mxCell id="67" value="n" style="edgeStyle=none;html=1;noEdgeStyle=1;orthogonal=1;" parent="1" source="65" target="69" edge="1">
                    <mxGeometry relative="1" as="geometry">
                        <mxPoint x="580" y="360" as="targetPoint"/>
                        <Array as="points">
                            <mxPoint x="452.5" y="412"/>
                            <mxPoint x="485" y="488"/>
                        </Array>
                    </mxGeometry>
                </mxCell>
                <mxCell id="65" value="&amp;gt; 2" style="rhombus;whiteSpace=wrap;html=1;" parent="1" vertex="1">
                    <mxGeometry x="395" y="320" width="80" height="80" as="geometry"/>
                </mxCell>
                <mxCell id="68" value="1" style="rounded=0;whiteSpace=wrap;html=1;" parent="1" vertex="1">
                    <mxGeometry x="350" y="500" width="70" height="40" as="geometry"/>
                </mxCell>
                <mxCell id="69" value="0" style="rounded=0;whiteSpace=wrap;html=1;" parent="1" vertex="1">
                    <mxGeometry x="450" y="500" width="70" height="40" as="geometry"/>
                </mxCell>
                <mxCell id="72" value="Predictions" style="edgeStyle=none;html=1;noEdgeStyle=1;orthogonal=1;" parent="1" source="3" target="63" edge="1">
                    <mxGeometry relative="1" as="geometry">
                        <mxPoint x="70" y="180.00000000000003" as="sourcePoint"/>
                        <mxPoint x="325" y="288.79999999999995" as="targetPoint"/>
                        <Array as="points">
                            <mxPoint x="182.5" y="72"/>
                            <mxPoint x="398.3333333333333" y="146"/>
                        </Array>
                    </mxGeometry>
                </mxCell>
                <mxCell id="73" value="Predictions" style="edgeStyle=none;html=1;noEdgeStyle=1;orthogonal=1;" parent="1" source="4" target="63" edge="1">
                    <mxGeometry relative="1" as="geometry">
                        <mxPoint x="30" y="305.6" as="sourcePoint"/>
                        <mxPoint x="285" y="414.4" as="targetPoint"/>
                        <Array as="points">
                            <mxPoint x="360" y="72"/>
                            <mxPoint x="422.77777777777777" y="144"/>
                        </Array>
                    </mxGeometry>
                </mxCell>
                <mxCell id="74" value="Predictions" style="edgeStyle=none;html=1;noEdgeStyle=1;orthogonal=1;" parent="1" source="5" target="63" edge="1">
                    <mxGeometry relative="1" as="geometry">
                        <mxPoint x="70" y="400" as="sourcePoint"/>
                        <mxPoint x="325" y="508.79999999999995" as="targetPoint"/>
                        <Array as="points">
                            <mxPoint x="482.5" y="72"/>
                            <mxPoint x="435" y="142"/>
                        </Array>
                    </mxGeometry>
                </mxCell>
                <mxCell id="75" value="Predictions" style="edgeStyle=none;html=1;noEdgeStyle=1;orthogonal=1;" parent="1" source="6" target="63" edge="1">
                    <mxGeometry relative="1" as="geometry">
                        <mxPoint x="70" y="480" as="sourcePoint"/>
                        <mxPoint x="325" y="588.8" as="targetPoint"/>
                        <Array as="points">
                            <mxPoint x="660" y="72"/>
                            <mxPoint x="459.44444444444446" y="140"/>
                        </Array>
                    </mxGeometry>
                </mxCell>
                <mxCell id="76" value="Predictions" style="edgeStyle=none;html=1;noEdgeStyle=1;orthogonal=1;" parent="1" source="7" target="63" edge="1">
                    <mxGeometry relative="1" as="geometry">
                        <mxPoint x="170" y="105.60000000000002" as="sourcePoint"/>
                        <mxPoint x="425" y="214.39999999999998" as="targetPoint"/>
                        <Array as="points">
                            <mxPoint x="782.5" y="72"/>
                            <mxPoint x="471.6666666666667" y="142"/>
                        </Array>
                    </mxGeometry>
                </mxCell>
                <mxCell id="77" value="Predictions" style="edgeStyle=none;html=1;noEdgeStyle=1;orthogonal=1;" parent="1" source="7" target="63" edge="1">
                    <mxGeometry relative="1" as="geometry">
                        <mxPoint x="758.75" y="180" as="sourcePoint"/>
                        <mxPoint x="561.25" y="280" as="targetPoint"/>
                        <Array as="points">
                            <mxPoint x="837.5" y="72"/>
                            <mxPoint x="483.8888888888889" y="142"/>
                        </Array>
                    </mxGeometry>
                </mxCell>
                <mxCell id="78" value="Predictions" style="edgeStyle=none;html=1;noEdgeStyle=1;orthogonal=1;" parent="1" source="5" target="63" edge="1">
                    <mxGeometry relative="1" as="geometry">
                        <mxPoint x="270" y="270" as="sourcePoint"/>
                        <mxPoint x="72.5" y="370" as="targetPoint"/>
                        <Array as="points">
                            <mxPoint x="537.5" y="72"/>
                            <mxPoint x="447.22222222222223" y="142"/>
                        </Array>
                    </mxGeometry>
                </mxCell>
                <mxCell id="79" value="Predictions" style="edgeStyle=none;html=1;noEdgeStyle=1;orthogonal=1;" parent="1" source="3" target="63" edge="1">
                    <mxGeometry relative="1" as="geometry">
                        <mxPoint x="797.5" y="350" as="sourcePoint"/>
                        <mxPoint x="600" y="450" as="targetPoint"/>
                        <Array as="points">
                            <mxPoint x="237.5" y="72"/>
                            <mxPoint x="410.55555555555554" y="146"/>
                        </Array>
                    </mxGeometry>
                </mxCell>
            </root>
        </mxGraphModel>
    </diagram>
</mxfile>